<?xml version="1.0" encoding="UTF-8"?>
<svg width="60px" height="60px" viewBox="0 0 60 60" version="1.1" xmlns="http://www.w3.org/2000/svg" xmlns:xlink="http://www.w3.org/1999/xlink">
    <!-- Generator: Sketch 42 (36781) - http://www.bohemiancoding.com/sketch -->
    <title>Dribbble</title>
    <desc>Created with Sketch.</desc>
    <defs></defs>
    <g id="Samples" stroke="none" stroke-width="1" fill="none" fill-rule="evenodd">
        <path d="M29.9986667,0 C13.43,0.00133333333 0,13.432 0,30.0013333 C0,46.568 13.43,60 29.9986667,60 C46.5673333,60 59.998,46.568 60,30.0013333 C59.998,13.432 46.5673333,0.00133333333 29.9986667,0 Z M48.3806667,15.5546667 C51.3073333,19.2713333 53.14,23.874 53.3713333,28.9 C49.984,28.1813333 46.7846667,27.8313333 43.8013333,27.8313333 L43.8013333,27.8306667 L43.7793333,27.8306667 C41.378,27.8306667 39.1233333,28.0486667 36.9993333,28.4253333 C36.4826667,27.16 35.96,25.9446667 35.4326667,24.7806667 C40.1633333,22.7053333 44.704,19.7506667 48.3806667,15.5546667 Z M29.9986667,6.59533333 C35.52,6.59533333 40.584,8.52533333 44.5933333,11.7386667 C41.5253333,15.412 37.4753333,18.0726667 33.1,19.9513333 C30.026,14.0066667 27.0553333,9.754 25.0246667,7.154 C26.632,6.79733333 28.2913333,6.59533333 29.9986667,6.59533333 Z M19.6606667,9.03533333 C21.2853333,10.954 24.538,15.1746667 28.012,21.7646667 C20.9466667,23.868 13.832,24.362 9.52733333,24.3606667 C9.40466667,24.3606667 9.28333333,24.3606667 9.164,24.3593333 L9.16,24.3593333 C8.43533333,24.3593333 7.812,24.348 7.29133333,24.332 C8.97066667,17.612 13.5746667,12.0466667 19.6606667,9.03533333 Z M6.59333333,30.0013333 C6.59333333,29.8913333 6.59733333,29.7793333 6.604,29.664 C7.272,29.6886667 8.12933333,29.71 9.16066667,29.71 L9.16666667,29.71 C13.8713333,29.6793333 22.086,29.286 30.4106667,26.658 C30.8646667,27.65 31.3133333,28.6833333 31.758,29.756 C26.1986667,31.6153333 21.82,34.5773333 18.5813333,37.5273333 C15.464,40.3673333 13.3573333,43.1793333 12.1266667,45.0573333 C8.68266667,40.98 6.59533333,35.74 6.59333333,30.0013333 Z M29.9986667,53.4073333 C24.79,53.4073333 19.9893333,51.6846667 16.0946667,48.794 C16.9226667,47.4306667 18.6973333,44.814 21.5233333,42.1093333 C24.4313333,39.3226667 28.4453333,36.4546667 33.686,34.7473333 C35.4673333,39.7406667 37.0793333,45.4493333 38.3073333,51.8746667 C35.7206667,52.86 32.9253333,53.4073333 29.9986667,53.4073333 Z M43.2453333,49.2513333 C42.058,43.44 40.5646667,38.2 38.9253333,33.5233333 C40.446,33.3053333 42.042,33.182 43.726,33.182 L43.786,33.182 L43.79,33.182 L43.794,33.182 C46.586,33.182 49.6533333,33.5293333 52.98,34.2853333 C51.8286667,40.474 48.244,45.804 43.2453333,49.2513333 Z" id="Dribbble" fill="#EC4989" fill-rule="nonzero"></path>
    </g>
</svg>