<?xml version="1.0" encoding="UTF-8"?>
<svg width="73px" height="46px" viewBox="0 0 73 46" version="1.1" xmlns="http://www.w3.org/2000/svg" xmlns:xlink="http://www.w3.org/1999/xlink">
    <!-- Generator: Sketch 42 (36781) - http://www.bohemiancoding.com/sketch -->
    <title>Behance</title>
    <desc>Created with Sketch.</desc>
    <defs></defs>
    <g id="Samples" stroke="none" stroke-width="1" fill="none" fill-rule="evenodd">
        <path d="M65.201033,6.40967033 L47.1098681,6.40967033 L47.1098681,1.87882198 L65.2018352,1.87882198 L65.2018352,6.40967033 L65.201033,6.40967033 Z M35.0672747,24.9876044 C36.2344725,26.809811 36.8176703,29.0234725 36.8176703,31.6213099 C36.8176703,34.3089231 36.1598681,36.7191209 34.8218022,38.8486681 C33.9706703,40.2583912 32.9141758,41.4481231 31.6442967,42.4057319 C30.213978,43.5145846 28.5205385,44.2740396 26.5744066,44.6800527 C24.6218571,45.0868747 22.5080659,45.2923077 20.2314286,45.2923077 L0,45.2923077 L0,0 L21.6954396,0 C27.164022,0.0897758242 31.041044,1.68713846 33.3305165,4.82443956 C34.7038791,6.74855385 35.3849451,9.05684396 35.3849451,11.7404132 C35.3849451,14.5097143 34.6958571,16.7249934 33.3088571,18.4088967 C32.5371429,19.352756 31.3972198,20.2108835 29.8882857,20.9857055 C32.1737473,21.8292747 33.9080989,23.1581187 35.0672747,24.9876044 Z M10.3603846,17.8564923 L19.8664286,17.8564923 C21.8197802,17.8564923 23.3993077,17.482022 24.6154396,16.7338901 C25.8307692,15.986567 26.4372308,14.6585319 26.4372308,12.7514022 C26.4372308,10.6445011 25.6342308,9.2461011 24.0242198,8.57318681 C22.6404286,8.10570549 20.869978,7.86468571 18.7216923,7.86468571 L10.3603846,7.86468571 L10.3603846,17.8564923 Z M27.3525385,30.9750857 C27.3525385,28.6215033 26.3987253,26.995833 24.4951099,26.1231473 C23.4305934,25.6265495 21.9288791,25.3733978 20.0028022,25.3556044 L10.3603846,25.3556044 L10.3603846,37.4251956 L19.8535934,37.4251956 C21.8037363,37.4251956 23.3134725,37.168 24.4028571,36.6309626 C26.3674396,35.6434286 27.3525385,33.7646066 27.3525385,30.9750857 Z M71.9122198,23.6069978 C72.1312198,25.0887033 72.2298901,27.2384703 72.1897802,30.048211 L48.7607912,30.048211 C48.8907473,33.3092571 50.0066044,35.5892396 52.1244066,36.8938198 C53.4007033,37.7123165 54.9489451,38.1118593 56.7619121,38.1118593 C58.6727473,38.1118593 60.2314176,37.6241582 61.4307033,36.6228747 C62.0844945,36.0923077 62.6612747,35.3425582 63.1594396,34.3978901 L71.7461648,34.3978901 C71.5215495,36.3228132 70.4875165,38.276044 68.6296264,40.2616264 C65.7505385,43.4151033 61.7122747,44.9979077 56.5276703,44.9979077 C52.2439341,44.9979077 48.4687912,43.6634022 45.1918132,41.0049055 C41.9252637,38.3375121 40.2855714,34.0104791 40.2855714,28.0084396 C40.2855714,22.3800615 41.7584066,18.0724396 44.7137033,15.0734418 C47.6786264,12.0695912 51.5067143,10.5741363 56.2252418,10.5741363 C59.0217033,10.5741363 61.543011,11.0780132 63.7915714,12.0914286 C66.0345165,13.1056527 67.8867912,14.7022066 69.3467912,16.8956484 C70.6672088,18.8278505 71.5167363,21.0617319 71.9122198,23.6069978 Z M63.4602637,24.4521846 C63.3022308,22.1972747 62.5553846,20.4907253 61.2117033,19.3244484 C59.8776484,18.1549363 58.2122857,17.5677538 56.2252418,17.5677538 C54.0617143,17.5677538 52.3923407,18.1953758 51.2050879,19.4287824 C50.0106154,20.6597626 49.266978,22.3331516 48.9621429,24.4521846 L63.4602637,24.4521846 L63.4602637,24.4521846 Z" id="Behance" fill="#333333" fill-rule="nonzero"></path>
    </g>
</svg>