<?xml version="1.0" encoding="UTF-8"?>
<svg width="121px" height="41px" viewBox="0 0 121 41" version="1.1" xmlns="http://www.w3.org/2000/svg" xmlns:xlink="http://www.w3.org/1999/xlink">
    <!-- Generator: Sketch 42 (36781) - http://www.bohemiancoding.com/sketch -->
    <title>logoS</title>
    <desc>Created with Sketch.</desc>
    <defs></defs>
    <g id="Page-1" stroke="none" stroke-width="1" fill="none" fill-rule="evenodd">
        <g id="logoS" transform="translate(1.000000, 0.000000)" stroke-width="0.5">
            <path d="M23.8,27.9 C23.8,24 22.8,21 20.8,18.9 C18.8,16.8 15.9,15.7 12.2,15.7 C8.4,15.7 5.4,16.8 3.3,18.9 C1.2,21 0.1,24 0.1,27.9 C0.1,31.8 1.2,34.8 3.4,36.9 C5.6,39 8.7,40.1 12.6,40.1 C15.3,40.1 17.6,39.6 19.4,38.6 C21.2,37.6 22.5,36.2 23.3,34.3 L17.9,32.4 C17.5,33.3 16.9,34.1 16,34.6 C15.1,35.1 14,35.4 12.6,35.4 C9.3,35.4 7.3,33.7 6.6,30.4 L23.6,30.4 C23.8,29.7 23.8,28.8 23.8,27.9 Z M6.6,26 C6.9,24.2 7.5,22.9 8.4,22 C9.3,21.1 10.6,20.6 12.2,20.6 C13.7,20.6 15,21.1 16,22 C17,22.9 17.6,24.3 17.8,26 L6.6,26 Z" id="Shape" stroke="#333333"></path>
            <path d="M32.5,11.5 L38.2,11.5 L37.3,16.3 L32.9,16.3 L32.9,37.6 L26.3,35.4 L26.3,16.2 L22.1,16.2 L22.9,11.4 L26.3,11.4 L26.3,8.6 C26.3,6 27.1,4.1 28.8,2.7 C30.4,1.3 32.6,0.7 35.4,0.7 C36.5,0.7 37.4,0.8 38.3,1 C39.2,1.2 39.9,1.5 40.4,1.9 L39.5,6.2 C38.8,5.7 37.8,5.5 36.8,5.5 C34,5.5 32.7,6.7 32.7,9.1 L32.7,11.5 L32.5,11.5 Z" id="Shape" stroke="#333333"></path>
            <path d="M58.6,27.9 C58.6,24 57.6,21 55.6,18.9 C53.6,16.8 50.7,15.7 47,15.7 C43.2,15.7 40.2,16.8 38.1,18.9 C36,21 34.9,24 34.9,27.9 C34.9,31.8 36,34.8 38.2,36.9 C40.4,39 43.5,40.1 47.4,40.1 C50.1,40.1 52.4,39.6 54.2,38.6 C56,37.6 57.3,36.2 58.1,34.3 L52.7,32.4 C52.3,33.3 51.7,34.1 50.8,34.6 C49.9,35.1 48.8,35.4 47.4,35.4 C44.1,35.4 42.1,33.7 41.4,30.4 L58.4,30.4 C58.6,29.7 58.6,28.8 58.6,27.9 Z M41.3,26 C41.6,24.2 42.2,22.9 43.1,22 C44,21.1 45.3,20.6 46.9,20.6 C48.4,20.6 49.7,21.1 50.7,22 C51.7,22.9 52.3,24.3 52.5,26 L41.3,26 Z" id="Shape" stroke="#333333"></path>
            <path d="M79.9,17.7 C81.7,19 82.9,20.6 83.5,22.7 L77.3,24.9 C76.7,22 75.2,20.6 72.6,20.6 C70.7,20.6 69.3,21.2 68.2,22.5 C67.2,23.8 66.7,25.6 66.7,28.1 C66.7,30.5 67.2,32.4 68.2,33.6 C69.2,34.8 70.7,35.5 72.5,35.5 C75.3,35.5 77,34.1 77.5,31.3 L83.5,33.2 C83,35.4 81.8,37.1 79.9,38.4 C78,39.7 75.6,40.3 72.6,40.3 C68.6,40.3 65.5,39.2 63.4,37.1 C61.2,35 60.1,32 60.1,28.1 C60.1,24.2 61.2,21.2 63.3,19.1 C65.5,17 68.5,15.9 72.3,15.9 C75.6,15.8 78.1,16.4 79.9,17.7 Z" id="Shape" stroke="#333333"></path>
            <polygon id="Shape" stroke="#333333" points="111 40.1 102.4 40.1 96 30.1 92.2 34 92.2 40.1 84.7 40.1 84.7 7.9 92.2 5.4 92.2 25.7 101.8 15.8 110.6 15.8 101.1 25.5"></polygon>
            <path d="M118.6,33.6 C119.4,34.3 119.7,35.2 119.7,36.4 C119.7,37.6 119.3,38.5 118.6,39.2 C117.9,39.9 116.8,40.2 115.5,40.2 C114.2,40.2 113.2,39.9 112.4,39.2 C111.6,38.5 111.3,37.6 111.3,36.4 C111.3,35.2 111.7,34.3 112.4,33.6 C113.2,32.9 114.2,32.6 115.5,32.6 C116.8,32.6 117.9,32.9 118.6,33.6 Z" id="Path" stroke="#9A9A9A"></path>
        </g>
    </g>
</svg>