<?xml version="1.0" encoding="UTF-8"?>
<svg width="120px" height="41px" viewBox="0 0 120 41" version="1.1" xmlns="http://www.w3.org/2000/svg" xmlns:xlink="http://www.w3.org/1999/xlink">
    <!-- Generator: Sketch 42 (36781) - http://www.bohemiancoding.com/sketch -->
    <title>efeck.w</title>
    <desc>Created with Sketch.</desc>
    <defs></defs>
    <g id="Page-1" stroke="none" stroke-width="1" fill="none" fill-rule="evenodd">
        <path d="M23.6387906,30.4822941 L6.61925947,30.4822941 C7.29235163,33.8057225 9.29557209,35.4674118 12.6289809,35.4674118 C14.0072173,35.4674118 15.1450465,35.2165907 16.0425027,34.7149412 C16.9399589,34.2132916 17.5649637,33.4921812 17.9175358,32.5515882 L23.3022462,34.4797941 C22.532998,36.36098 21.2429241,37.7953627 19.4319856,38.7829853 C17.6210472,39.7706079 15.3534016,40.2644118 12.6289809,40.2644118 C8.65453193,40.2644118 5.57758531,39.1905843 3.39804877,37.0428971 C1.21851222,34.8952098 0.128760293,31.8931958 0.128760293,28.0367647 C0.128760293,24.1803337 1.18646069,21.1783196 3.30189322,19.0306324 C5.41732575,16.8829451 8.39811779,15.8091176 12.2443587,15.8091176 C15.9623917,15.8091176 18.8229905,16.8594307 20.826241,18.9600882 C22.8294915,21.0607458 23.8311017,24.0549217 23.8311017,27.9427059 C23.8311017,28.8205926 23.7669987,29.6671136 23.6387906,30.4822941 Z M8.37409813,21.9229412 C7.42856389,22.832181 6.82759776,24.180344 6.57118169,25.9674706 L17.7733025,25.9674706 C17.5168864,24.2116971 16.9079074,22.8713723 15.9463472,21.9464559 C14.9847869,21.0215395 13.7347774,20.5590882 12.196281,20.5590882 C10.5936806,20.5590882 9.31963237,21.0137013 8.37409813,21.9229412 Z M32.4579798,11.4558824 L38.11246,11.4558824 L37.1807788,16.2794118 L32.7464464,16.2528824 L32.7464464,37.5868969 L26.1597917,35.4226919 L26.1597917,16.2528824 L21.9770256,16.2528824 L22.7581318,11.4558824 L26.1597917,11.4558824 L26.1597917,8.63411765 C26.1597917,6.06316362 26.9771057,4.09578623 28.6117581,2.73192647 C30.2464105,1.36806671 32.4579659,0.686147059 35.2464906,0.686147059 C36.3042068,0.686147059 37.2737655,0.795881256 38.1551958,1.01535294 C39.036626,1.23482463 39.7337467,1.53267459 40.2465788,1.90891176 L39.3331012,6.18858824 C38.595905,5.71829177 37.6824365,5.48314706 36.5926682,5.48314706 C33.8361955,5.48314706 32.4579798,6.69022322 32.4579798,9.10441176 L32.4579798,11.4558824 Z M58.4493574,30.4822941 L41.4298263,30.4822941 C42.1029184,33.8057225 44.1061389,35.4674118 47.4395477,35.4674118 C48.8177841,35.4674118 49.9556133,35.2165907 50.8530695,34.7149412 C51.7505257,34.2132916 52.3755305,33.4921812 52.7281026,32.5515882 L58.112813,34.4797941 C57.3435648,36.36098 56.0534909,37.7953627 54.2425524,38.7829853 C52.4316139,39.7706079 50.1639684,40.2644118 47.4395477,40.2644118 C43.4650987,40.2644118 40.3881521,39.1905843 38.2086156,37.0428971 C36.029079,34.8952098 34.9393271,31.8931958 34.9393271,28.0367647 C34.9393271,24.1803337 35.9970275,21.1783196 38.11246,19.0306324 C40.2278925,16.8829451 43.2086846,15.8091176 47.0549255,15.8091176 C50.7729585,15.8091176 53.6335573,16.8594307 55.6368078,18.9600882 C57.6400583,21.0607458 58.6416685,24.0549217 58.6416685,27.9427059 C58.6416685,28.8205926 58.5775655,29.6671136 58.4493574,30.4822941 Z M43.1526093,21.9229412 C42.2070751,22.832181 41.6061089,24.180344 41.3496929,25.9674706 L52.5518137,25.9674706 C52.2953976,24.2116971 51.6864186,22.8713723 50.7248583,21.9464559 C49.7632981,21.0215395 48.5132885,20.5590882 46.9747922,20.5590882 C45.3721918,20.5590882 44.0981435,21.0137013 43.1526093,21.9229412 Z M79.8747849,17.6902941 C81.6376453,18.944418 82.8395776,20.6217836 83.4806178,22.7224412 L77.326663,24.8857941 C76.7497268,22.0326622 75.1952278,20.6061176 72.6631191,20.6061176 C70.7720507,20.6061176 69.3217191,21.2410084 68.3120808,22.5108088 C67.3024426,23.7806093 66.797631,25.6382525 66.797631,28.0837941 C66.797631,30.5293358 67.3104554,32.3713026 68.3361197,33.60975 C69.3617839,34.8481974 70.7880769,35.4674118 72.6150414,35.4674118 C75.4356181,35.4674118 77.1022975,34.0722198 77.6151296,31.2817941 L83.5767733,33.1629706 C83.0639412,35.3263343 81.8700218,37.0507289 79.9949793,38.3362059 C78.1199368,39.6216829 75.6920337,40.2644118 72.7111969,40.2644118 C68.7367479,40.2644118 65.6598013,39.1905843 63.4802648,37.0428971 C61.3007282,34.8952098 60.2109763,31.8931958 60.2109763,28.0367647 C60.2109763,24.1803337 61.2927153,21.1783196 63.4562259,19.0306324 C65.6197364,16.8829451 68.6245671,15.8091176 72.4708081,15.8091176 C75.6439568,15.8091176 78.1119244,16.4361702 79.8747849,17.6902941 Z M96.4443574,29.4006176 L92.0692802,33.9624706 L92.0692802,39.7941176 L85.4826255,39.7941176 L85.4826255,8.18334994 L92.0692802,5.97997059 L92.0692802,27.0021176 L102.502157,16.2794118 L109.954211,16.2794118 L100.91559,25.4971765 L110.531145,39.7941176 L103.07909,39.7941176 L96.4443574,29.4006176 Z M118.606361,33.6332647 C119.359583,34.3230329 119.736189,35.2479354 119.736189,36.408 C119.736189,37.5680646 119.359583,38.4929671 118.606361,39.1827353 C117.853139,39.8725034 116.835503,40.2173824 115.553423,40.2173824 C114.271342,40.2173824 113.253706,39.8803416 112.500484,39.20625 C111.747262,38.5321584 111.370656,37.5994177 111.370656,36.408 C111.370656,35.2165823 111.747262,34.2838416 112.500484,33.60975 C113.253706,32.9356584 114.271342,32.5986176 115.553423,32.5986176 C116.835503,32.5986176 117.853139,32.9434966 118.606361,33.6332647 Z" id="efeck.w" fill="#FFFFFF" fill-rule="nonzero"></path>
    </g>
</svg>