<?xml version="1.0" encoding="UTF-8" standalone="no"?>
<!DOCTYPE svg PUBLIC "-//W3C//DTD SVG 1.1//EN" "http://www.w3.org/Graphics/SVG/1.1/DTD/svg11.dtd">
<svg width="100%" height="100%" viewBox="0 0 291 251" version="1.1" xmlns="http://www.w3.org/2000/svg" xmlns:xlink="http://www.w3.org/1999/xlink" xml:space="preserve" style="fill-rule:evenodd;clip-rule:evenodd;stroke-linejoin:round;stroke-miterlimit:1.41421;">
    <g id="Page-1">
        <path id="Fill-1" d="M196.476,0.284C195,-0.453 193.793,0.294 193.793,1.943L193.793,204.859L282.645,249.285C287.072,251.499 290.694,249.26 290.694,244.31L290.694,48.982C290.694,48.008 290.144,47.118 289.274,46.683L196.476,0.284Z" style="fill:rgb(50,252,141);"/>
        <path id="Fill-2" d="M96.901,156.473L192.231,1.563C193.096,0.157 195.011,-0.388 196.487,0.349L288.571,46.391C289.718,46.966 290.127,48.399 289.455,49.49L193.803,204.924L96.901,156.473Z" style="fill:rgb(11,227,112);"/>
        <path id="Fill-3" d="M10.733,4.375C4.829,1.422 2.83,3.607 6.289,9.227L96.901,156.473L193.803,204.924L97.528,48.477C97.118,47.811 96.531,47.274 95.832,46.925L10.733,4.375Z" style="fill:rgb(20,199,103);"/>
        <path id="Fill-4" d="M96.901,244.375C96.901,249.325 93.279,251.564 88.851,249.35L5.366,207.607C2.414,206.131 0,202.224 0,198.924L0,5.008C0,1.708 2.414,0.216 5.366,1.691L95.706,46.862C96.439,47.227 96.901,47.975 96.901,48.795L96.901,244.375Z" style="fill:rgb(0,171,108);"/>
    </g>
</svg>
